<svg width="15" height="14" viewBox="0 0 15 14" fill="none" xmlns="http://www.w3.org/2000/svg">
<g clip-path="url(#clip0_1545_8754)">
<path d="M8.01996 8.99994L5.01996 9.53994L5.51996 6.49994L11.25 0.789939C11.3429 0.696211 11.4535 0.621816 11.5754 0.571048C11.6972 0.520279 11.8279 0.494141 11.96 0.494141C12.092 0.494141 12.2227 0.520279 12.3445 0.571048C12.4664 0.621816 12.577 0.696211 12.67 0.789939L13.73 1.84994C13.8237 1.9429 13.8981 2.0535 13.9488 2.17536C13.9996 2.29722 14.0258 2.42793 14.0258 2.55994C14.0258 2.69195 13.9996 2.82266 13.9488 2.94452C13.8981 3.06637 13.8237 3.17698 13.73 3.26994L8.01996 8.99994Z" stroke="#000001" stroke-linecap="round" stroke-linejoin="round"/>
<path d="M12.52 9.5V12.5C12.52 12.7652 12.4146 13.0196 12.2271 13.2071C12.0395 13.3946 11.7852 13.5 11.52 13.5H2.01996C1.75474 13.5 1.50039 13.3946 1.31285 13.2071C1.12532 13.0196 1.01996 12.7652 1.01996 12.5V3C1.01996 2.73478 1.12532 2.48043 1.31285 2.29289C1.50039 2.10536 1.75474 2 2.01996 2H5.01996" stroke="#000001" stroke-linecap="round" stroke-linejoin="round"/>
</g>
<defs>
<clipPath id="clip0_1545_8754">
<rect width="14" height="14" fill="white" transform="translate(0.519958)"/>
</clipPath>
</defs>
</svg>
